<svg width="189" height="49" viewBox="0 0 189 49" fill="none" xmlns="http://www.w3.org/2000/svg">
<g clip-path="url(#clip0_1_1015)">
<path d="M69.4588 30.0647V31.664C69.4619 32.4446 69.3084 33.2177 69.0078 33.9365C68.717 34.6433 68.3 35.2896 67.7778 35.8433C67.2516 36.4028 66.6237 36.8542 65.9287 37.1727C65.2145 37.5022 64.4379 37.6695 63.6532 37.6629C62.9333 37.6646 62.2164 37.5697 61.5211 37.3804C60.81 37.1895 60.1492 36.842 59.5859 36.3626C58.9863 35.848 58.5025 35.2091 58.1673 34.489C57.7659 33.5751 57.5752 32.5806 57.6097 31.581V17.2985C57.5959 16.4912 57.735 15.6888 58.0197 14.9347C58.2972 14.2257 58.7159 13.5822 59.2497 13.0445C59.7887 12.506 60.4286 12.0823 61.1316 11.7982C61.9022 11.4878 62.7256 11.3339 63.5548 11.3454C64.3337 11.3154 65.1101 11.4519 65.8334 11.7461C66.5568 12.0403 67.2109 12.4855 67.7532 13.0528C68.2856 13.6267 68.7033 14.2996 68.9832 15.0344C69.2887 15.8286 69.4417 16.6746 69.4342 17.527V18.981H65.7729V17.7347C65.7864 17.0527 65.571 16.3863 65.162 15.8445C64.9717 15.5881 64.7233 15.3819 64.4379 15.2431C64.1525 15.1043 63.8384 15.037 63.522 15.0468C62.6118 15.0468 62.0077 15.3238 61.7097 15.8777C61.3889 16.5515 61.2355 17.2945 61.2628 18.0421V31.2777C61.2395 31.9433 61.4076 32.6015 61.7466 33.1721C62.0705 33.6789 62.6487 33.9323 63.4892 33.9323C63.7507 33.9287 64.0103 33.8867 64.26 33.8077C64.5406 33.7201 64.8022 33.5791 65.0308 33.3923C65.2651 33.1677 65.4484 32.894 65.5679 32.5904C65.7243 32.1859 65.7983 31.7535 65.7852 31.3192V30.048L69.4588 30.0647Z" fill="white"/>
<path d="M72.4355 37.447V11.5532H78.3314C82.6365 11.5532 84.789 14.0873 84.789 19.1556C84.8247 20.4866 84.5874 21.8107 84.092 23.044C83.5795 24.1593 82.7136 25.0689 81.632 25.628L85.5803 37.447H81.6935L78.2863 26.3924H76.0969V37.447H72.4355ZM76.0969 15.047V23.1188H78.1797C78.7071 23.1411 79.233 23.0475 79.7213 22.8446C80.0888 22.6775 80.4006 22.4063 80.6193 22.0636C80.8309 21.6775 80.9699 21.2549 81.0293 20.8173C81.1714 19.6697 81.1714 18.5086 81.0293 17.3609C80.9798 16.908 80.8404 16.4699 80.6193 16.0731C80.1642 15.3918 79.3031 15.0553 78.0362 15.0553L76.0969 15.047Z" fill="white"/>
<path d="M90.4881 37.4467V26.5002L85.4656 11.5447H89.3401L92.2716 21.8473H92.3413L95.2852 11.553H99.1597L94.1372 26.5085V37.4551L90.4881 37.4467Z" fill="white"/>
<path d="M101.005 37.447V11.5533H106.495C107.397 11.5427 108.295 11.6831 109.152 11.9687C109.95 12.2591 110.664 12.7459 111.23 13.3853C111.85 14.0574 112.294 14.8757 112.522 15.7657C112.795 16.9765 112.916 18.2174 112.883 19.4589C112.895 20.4445 112.829 21.4295 112.686 22.4043C112.554 23.2039 112.267 23.9691 111.841 24.656C111.358 25.4871 110.664 26.1726 109.832 26.6417C108.808 27.1537 107.673 27.3965 106.532 27.3479H104.662V37.4595L101.005 37.447ZM104.662 15.047V23.8459H106.421C107.013 23.8781 107.603 23.7656 108.143 23.5177C108.532 23.3212 108.847 23.0019 109.041 22.6079C109.249 22.1908 109.365 21.733 109.381 21.2661C109.418 20.7301 109.439 20.1361 109.439 19.4838C109.439 18.8316 109.439 18.2999 109.402 17.7557C109.389 17.2595 109.279 16.7709 109.078 16.3183C108.897 15.9181 108.596 15.5864 108.217 15.3711C107.705 15.1286 107.141 15.0174 106.577 15.047H104.662Z" fill="white"/>
<path d="M118.012 37.447V15.047H113.781V11.5532H125.892V15.047H121.673V37.447H118.012Z" fill="white"/>
<path d="M127.532 37.447V11.5532H131.193V33.7372H138.442V37.447H127.532Z" fill="white"/>
<path d="M140.91 37.447V11.5532H144.572V37.447H140.91Z" fill="white"/>
<path d="M147.909 17.664C147.889 16.7146 148.072 15.7721 148.446 14.9014C148.777 14.1374 149.267 13.4544 149.881 12.899C150.456 12.3906 151.119 11.996 151.837 11.7358C153.262 11.2039 154.828 11.2039 156.253 11.7358C156.979 12.0016 157.654 12.3954 158.245 12.899C158.84 13.4643 159.315 14.1454 159.644 14.9014C160.015 15.7728 160.198 16.7148 160.181 17.664V18.9726H156.519V17.664C156.548 17.2994 156.497 16.9328 156.37 16.5903C156.243 16.2479 156.044 15.9379 155.785 15.6824C155.296 15.2713 154.681 15.0463 154.045 15.0463C153.409 15.0463 152.794 15.2713 152.304 15.6824C152.044 15.9361 151.842 16.2457 151.714 16.5886C151.586 16.9314 151.536 17.2988 151.566 17.664V31.3358C151.536 31.701 151.586 32.0684 151.714 32.4112C151.842 32.7541 152.044 33.0637 152.304 33.3174C152.794 33.7285 153.409 33.9535 154.045 33.9535C154.681 33.9535 155.296 33.7285 155.785 33.3174C156.044 33.0619 156.243 32.7519 156.37 32.4095C156.497 32.067 156.548 31.7004 156.519 31.3358V26.4628H153.612V23.1892H160.172V31.3358C160.197 32.2977 160.014 33.2534 159.635 34.1358C159.306 34.8696 158.83 35.526 158.237 36.0634C157.654 36.5874 156.978 36.9948 156.245 37.264C154.82 37.7959 153.254 37.7959 151.829 37.264C151.104 37 150.439 36.5918 149.873 36.0634C149.26 35.5359 148.77 34.8777 148.438 34.1358C148.058 33.254 147.874 32.2979 147.901 31.3358L147.909 17.664Z" fill="white"/>
<path d="M163.412 37.447V11.5532H167.073V22.6452H171.583V11.5532H175.24V37.447H171.583V25.9188H167.073V37.447H163.412Z" fill="white"/>
<path d="M181.103 37.447V15.047H176.868V11.5532H189V15.047H184.765V37.447H181.103Z" fill="white"/>
<path d="M24.1821 49.0042C37.5375 49.0042 48.3642 38.0342 48.3642 24.5021C48.3642 10.97 37.5375 0 24.1821 0C10.8267 0 0 10.97 0 24.5021C0 38.0342 10.8267 49.0042 24.1821 49.0042Z" fill="#48DCA8"/>
<path d="M23.9485 37.6796C31.1311 37.6796 36.9538 31.7799 36.9538 24.5022C36.9538 17.2245 31.1311 11.3247 23.9485 11.3247C16.7658 11.3247 10.9431 17.2245 10.9431 24.5022C10.9431 31.7799 16.7658 37.6796 23.9485 37.6796Z" fill="#90EFCE"/>
<path d="M33.03 28.5444V29.6453C31.4188 31.4987 29.6963 33.2496 27.8721 34.888C26.4814 36.1379 24.9381 37.2017 23.2801 38.0536C21.9402 38.7561 20.4588 39.137 18.9504 39.1669C17.8711 39.1966 16.8024 38.9449 15.8467 38.4358C14.9869 37.9571 14.3014 37.2115 13.891 36.3088C13.4255 35.2659 13.1998 34.1295 13.2309 32.9853C13.2408 31.9031 13.4009 30.8277 13.7065 29.7907C14.0475 28.6097 14.5092 27.468 15.0841 26.3841C15.7402 25.1502 16.4814 23.9646 17.3022 22.8364C18.1741 21.615 19.2019 20.3327 20.3854 18.9895C21.5101 17.7042 22.7226 16.5006 24.014 15.3877C25.031 14.5064 26.117 13.7103 27.2612 13.0073C28.1154 12.487 29.0192 12.0555 29.9591 11.7194C30.6171 11.4746 31.3087 11.3345 32.0091 11.304C32.5142 11.2912 33.0109 11.4362 33.4318 11.7194C33.841 12.0172 34.1547 12.4304 34.3338 12.9076C34.5565 13.4785 34.6652 14.0885 34.6536 14.7022C34.6536 15.979 34.2245 17.3998 33.3662 18.9645C32.4616 20.5899 31.3836 22.1098 30.1518 23.4969C29.0372 24.7948 27.809 25.9877 26.4822 27.0613C25.3178 27.9835 24.4787 28.4447 23.9648 28.4447C23.6037 28.4386 23.2593 28.2894 23.0054 28.0292C22.8692 27.9143 22.7591 27.7709 22.6826 27.6089C22.6062 27.4468 22.5653 27.2699 22.5626 27.0904C22.5626 26.4423 22.8988 25.6654 23.5712 24.7515C24.2334 23.8481 24.9729 23.0057 25.7811 22.234C26.5765 21.4696 27.0521 21.0915 27.212 21.0915C27.2899 21.0915 27.3268 21.1248 27.3268 21.1913C27.302 21.377 27.2421 21.5561 27.1505 21.7188C27.0712 21.8622 27.0119 22.016 26.9742 22.1758C26.9742 22.2631 27.0111 22.3088 27.0767 22.3088C27.2653 22.3088 27.8106 21.7978 28.7167 20.7675C29.641 19.7112 30.4711 18.574 31.1973 17.3693C31.9517 16.1369 32.3289 15.1232 32.3289 14.3284C32.3465 14.0608 32.2726 13.7953 32.1198 13.5764C32.0424 13.4865 31.9455 13.416 31.8366 13.3705C31.7277 13.3251 31.6099 13.306 31.4925 13.3147C30.708 13.3147 29.5231 13.9545 27.9377 15.234C26.1612 16.7069 24.5262 18.3469 23.0546 20.1319C21.4512 22.0174 20.0519 24.0717 18.8807 26.2595C17.7874 28.3699 17.2407 30.2283 17.2407 31.8346C17.2176 32.6277 17.3572 33.417 17.6507 34.1527C17.9005 34.7449 18.3206 35.2473 18.8561 35.5942C19.4329 35.9464 20.0977 36.1224 20.7708 36.101C22.3863 36.101 24.2204 35.4627 26.2731 34.1859C28.7297 32.5718 30.9967 30.679 33.03 28.5444Z" fill="white"/>
</g>
<defs>
<clipPath id="clip0_1_1015">
<rect width="189" height="49" fill="white"/>
</clipPath>
</defs>
</svg>
